<svg xmlns="http://www.w3.org/2000/svg" viewBox="0 0 335.94 338.56"><defs><style>.cls-1{fill:#5f3892;}</style></defs><g id="Lager_2" data-name="Lager 2"><g id="Lager_1-2" data-name="Lager 1"><path class="cls-1" d="M335.93,323.77c.19,8.53-4.43,14.13-13.28,14.32-16.25.36-32.52.53-48.75,0-9.81-.32-13.49-5.18-13.52-15.83-.08-35.7.14-71.4-.23-107.09-.07-7.18-1.64-14.5-3.56-21.46-3.67-13.33-13.11-21-26.59-22.72-14-1.79-26.84,2.38-33.55,15.12-5,9.51-8.86,20.75-9.23,31.35-1.16,33.75-.42,67.56-.47,101.35,0,15.88-3.71,19.51-19.87,19.6-12.43.07-24.86.2-37.29-.07-12.82-.28-16.63-4.2-16.64-16.63q0-97.53,0-195.07c0-11.69,4.26-16,16.1-16.28,11.47-.23,22.95-.07,34.42-.06,19.83,0,22.31,2.32,23.86,23.86,26.52-29.86,59.43-30.89,93-22.67s49,34.78,51.37,66.31C335.32,226.29,334.89,275.09,335.93,323.77Z"/><path class="cls-1" d="M83.57,225.34q0,47.78,0,95.54c0,12.42-4.13,17.08-16.22,17.4q-20.52.56-41.08,0c-12-.3-16.49-5.12-16.5-17.31q-.12-96.5,0-193c0-12.38,4.95-17.4,17.34-17.62q19.59-.36,39.18,0c12.51.22,17.26,5.13,17.29,17.53Q83.63,176.62,83.57,225.34Z"/><path class="cls-1" d="M93.29,47.18A46.65,46.65,0,1,1,0,47,46.68,46.68,0,0,1,46.32,0C72.36-.32,93.26,20.67,93.29,47.18Z"/></g></g></svg>