<svg xmlns="http://www.w3.org/2000/svg" viewBox="0 0 425.2 51.85"><defs><style>.cls-1{fill:#5f3790;}</style></defs><g id="Lager_2" data-name="Lager 2"><g id="Lager_1-2" data-name="Lager 1"><path class="cls-1" d="M3.44,0h9.45L9.45,51.85H0Z"/><path class="cls-1" d="M16.46,51.85,19,15H40.29q11.6,0,10.82,11.55L49.39,51.85H40l1.8-26.56a1.8,1.8,0,0,0-2-2.2H27.81L25.86,51.85Z"/><path class="cls-1" d="M70.24,6.88,69.68,15h7.83l-.58,8H69.11L67.79,43c-.1,1.43.54,2.14,1.93,2.14h5.11l-.46,6.75H65.22q-7.44,0-7-6.31L59.71,23H54.35l.57-8h5.37l.55-8.13Z"/><path class="cls-1" d="M90.89,51.85q-11.6,0-10.82-11.54l1-14.38Q81.79,15,93.34,15h10.4q11.55,0,10.8,10.92l-.08,1.32q-.69,10.16-12.24,10.15H89.67l-.28,4.17a1.81,1.81,0,0,0,2,2.21h19.12L110,51.85Zm1.9-28.76c-1.43,0-2.18.52-2.25,1.57l-.41,6h12.55A2.05,2.05,0,0,0,105,28.51l.26-3.85c.07-1.05-.61-1.57-2-1.57Z"/><path class="cls-1" d="M117.32,51.85l1.73-25.42Q119.82,15,131.43,15H139l-.55,8.08h-7.57a2,2,0,0,0-2.35,2.08l-1.81,26.68Z"/><path class="cls-1" d="M140.85,51.85,143.35,15h21.32q11.61,0,10.82,11.55l-1.72,25.29h-9.4l1.81-26.56a1.81,1.81,0,0,0-2.06-2.2H152.2l-1.95,28.76Z"/><path class="cls-1" d="M190.67,51.85q-11.61,0-10.82-11.54l1-14.38Q181.57,15,193.11,15h10.41q11.55,0,10.8,10.92l-.09,1.32Q213.54,37.41,202,37.4H189.44l-.28,4.17a1.82,1.82,0,0,0,2.06,2.21h19.11l-.54,8.07Zm1.89-28.76c-1.43,0-2.18.52-2.25,1.57l-.41,6h12.56a2.05,2.05,0,0,0,2.29-2.15l.26-3.85c.07-1.05-.61-1.57-2-1.57Z"/><path class="cls-1" d="M232.65,6.88,232.1,15h7.82l-.62,8h-7.82L230.2,43c-.1,1.43.55,2.14,1.93,2.14h5.12l-.46,6.75h-9.15q-7.44,0-7-6.31L222.08,23h-5.37l.62-8h5.37l.55-8.13Z"/><path class="cls-1" d="M263,51.85l2-28.76h-9.72a2,2,0,0,0-2.34,2.08L251.1,51.85h-9.4l1.73-25.42Q244.21,15,255.83,15h28.74q11.55,0,10.77,11.55l-1.72,25.29h-9.4L286,25.29a1.8,1.8,0,0,0-2-2.2h-9.6l-1.95,28.76Z"/><path class="cls-1" d="M310.52,51.85q-11.61,0-10.83-11.54l1-14.38Q301.42,15,313,15h10.41q11.53,0,10.8,10.92l-.09,1.32q-.7,10.16-12.24,10.15H309.29L309,41.57a1.81,1.81,0,0,0,2.06,2.21h19.11l-.55,8.07Zm1.89-28.76c-1.43,0-2.18.52-2.25,1.57l-.41,6H322.3a2,2,0,0,0,2.29-2.15l.27-3.85c.07-1.05-.61-1.57-2-1.57Z"/><path class="cls-1" d="M368.43,51.85H348.77a9.43,9.43,0,0,1-6.23-1.92,12.47,12.47,0,0,1-3.49-4.8A20.37,20.37,0,0,1,337.57,39a39.35,39.35,0,0,1-.1-6,37.6,37.6,0,0,1,.9-5.8,20.79,20.79,0,0,1,2.29-5.87,14.15,14.15,0,0,1,4.13-4.51,10.93,10.93,0,0,1,6.46-1.8h10.28l1-15H372ZM351.52,23.09a2.9,2.9,0,0,0-2.34,1,8,8,0,0,0-1.44,2.55A16.93,16.93,0,0,0,347,30c-.16,1.18-.28,2.23-.34,3.16s-.09,2-.09,3.21a19.74,19.74,0,0,0,.3,3.5,7,7,0,0,0,1.07,2.81,2.52,2.52,0,0,0,2.22,1.14h9.46L361,23.09Z"/><path class="cls-1" d="M377.36,15h9.4l-2.5,36.84h-9.41Z"/><path class="cls-1" d="M414.32,15q11.61,0,10.83,11.55l-1.72,25.29H401.5q-11.56,0-10.83-10.91l.09-1.33q.71-10.22,12.24-10.22h12.55l.28-4.1a1.81,1.81,0,0,0-2.06-2.2H394.6l.55-8.08Zm.77,21.13H402.6a2.08,2.08,0,0,0-2.35,2.15L400,42.2c-.07,1,.63,1.58,2.1,1.58h12.5Z"/></g></g></svg>