<svg xmlns="http://www.w3.org/2000/svg" viewBox="0 0 49.3 34.07"><defs><style>.cls-1{fill:#5f3892;}</style></defs><g id="Lager_2" data-name="Lager 2"><g id="Lager_1-2" data-name="Lager 1"><path class="cls-1" d="M31.12,34c-1.07,0-2.15,0-3.22,0-1.73,0-1.77-.06-1.13-1.56,1.35-3.19,2.75-6.36,4.14-9.53.23-.53.51-1,.73-1.57.7-1.64.72-1.76-.61-3a9.83,9.83,0,0,1-2.88-4.25A10.63,10.63,0,0,1,37.67.15c4.72-.22,8.42,1.42,10.59,5.77,1.49,3,1.23,6,.17,9.13s-3,5.48-4.77,8.07c-2.13,3.14-4.37,6.2-6.49,9.35A2.79,2.79,0,0,1,34.35,34,29,29,0,0,0,31.12,34Z"/><path class="cls-1" d="M4.67,34H.7C0,34-.15,33.65.13,33q1.76-3.95,3.49-7.91l1.89-4.3A1.7,1.7,0,0,0,5,18.62a11.91,11.91,0,0,1-2.33-2.54c-3.3-5.52-.17-14,6-15.57C13.84-.78,18.28.23,21.56,5.12a9.87,9.87,0,0,1,1.3,6.18C22.65,14.91,21,17.92,19,20.79c-2.45,3.51-5,7-7.32,10.58-1.24,1.94-2.65,3-5,2.62a13.06,13.06,0,0,0-2,0Z"/></g></g></svg>